HIERARCHY
ROOT hip
{
  OFFSET 0 0 0
  CHANNELS 6 Xposition Yposition Zposition Zrotation Yrotation Xrotation
  JOINT abdomen
  {
    OFFSET 0 20.6881 -0.73152
    CHANNELS 3 Zrotation Xrotation Yrotation
    JOINT chest
    {
      OFFSET 0 11.7043 -0.48768
      CHANNELS 3 Zrotation Xrotation Yrotation
      JOINT neck
      {
        OFFSET 0 22.1894 -2.19456
        CHANNELS 3 Zrotation Xrotation Yrotation
        JOINT head
        {
          OFFSET -0.24384 7.07133 1.2192
          CHANNELS 3 Zrotation Xrotation Yrotation
          JOINT leftEye
          {
            OFFSET 4.14528 8.04674 8.04672
            CHANNELS 3 Zrotation Xrotation Yrotation
            End Site
            {
              OFFSET 1 0 0
            }
          }
          JOINT rightEye
          {
            OFFSET -3.6576 8.04674 8.04672
            CHANNELS 3 Zrotation Xrotation Yrotation
            End Site
            {
              OFFSET 1 0 0
            }
          }
        }
      }
      JOINT rCollar
      {
        OFFSET -2.68224 19.2634 -4.8768
        CHANNELS 3 Zrotation Xrotation Yrotation
        JOINT rShldr
        {
          OFFSET -8.77824 -1.95073 1.46304
          CHANNELS 3 Zrotation Xrotation Yrotation
          JOINT rForeArm
          {
            OFFSET -28.1742 -1.7115 0.48768
            CHANNELS 3 Zrotation Xrotation Yrotation
            JOINT rHand
            {
              OFFSET -22.5879 0.773209 7.07136
              CHANNELS 3 Zrotation Xrotation Yrotation
              JOINT rThumb1
              {
                OFFSET -1.2192 -0.487915 3.41376
                CHANNELS 3 Zrotation Xrotation Yrotation
                JOINT rThumb2
                {
                  OFFSET -3.37035 -0.52449 3.41376
                  CHANNELS 3 Zrotation Xrotation Yrotation
                  End Site
                  {
                    OFFSET -1.78271 -1.18214 1.43049
                  }
                }
              }
              JOINT rIndex1
              {
                OFFSET -7.75947 0.938293 5.60832
                CHANNELS 3 Zrotation Xrotation Yrotation
                JOINT rIndex2
                {
                  OFFSET -2.54057 -0.884171 1.56538
                  CHANNELS 3 Zrotation Xrotation Yrotation
                  End Site
                  {
                    OFFSET -1.62519 -0.234802 1.16502
                  }
                }
              }
              JOINT rMid1
              {
                OFFSET -8.24714 1.18213 3.41376
                CHANNELS 3 Zrotation Xrotation Yrotation
                JOINT rMid2
                {
                  OFFSET -3.10165 -0.590103 1.0647
                  CHANNELS 3 Zrotation Xrotation Yrotation
                  End Site
                  {
                    OFFSET -2.48547 -0.328903 0.83742
                  }
                }
              }
              JOINT rRing1
              {
                OFFSET -8.82822 0.546677 1.51678
                CHANNELS 3 Zrotation Xrotation Yrotation
                JOINT rRing2
                {
                  OFFSET -2.60934 -0.819778 -0.0198488
                  CHANNELS 3 Zrotation Xrotation Yrotation
                  End Site
                  {
                    OFFSET -2.33842 -0.294052 0.168128
                  }
                }
              }
              JOINT rPinky1
              {
                OFFSET -8.27202 -0.0477905 -0.4584
                CHANNELS 3 Zrotation Xrotation Yrotation
                JOINT rPinky2
                {
                  OFFSET -1.82734 -0.647385 -0.700984
                  CHANNELS 3 Zrotation Xrotation Yrotation
                  End Site
                  {
                    OFFSET -1.69225 -0.51767 -0.607171
                  }
                }
              }
            }
          }
        }
      }
      JOINT lCollar
      {
        OFFSET 2.68224 19.2634 -4.8768
        CHANNELS 3 Zrotation Xrotation Yrotation
        JOINT lShldr
        {
          OFFSET 8.77824 -1.95073 1.46304
          CHANNELS 3 Zrotation Xrotation Yrotation
          JOINT lForeArm
          {
            OFFSET 28.1742 -1.7115 0.48768
            CHANNELS 3 Zrotation Xrotation Yrotation
            JOINT lHand
            {
              OFFSET 22.5879 0.773209 7.07136
              CHANNELS 3 Zrotation Xrotation Yrotation
              JOINT lThumb1
              {
                OFFSET 1.2192 -0.487915 3.41376
                CHANNELS 3 Zrotation Xrotation Yrotation
                JOINT lThumb2
                {
                  OFFSET 3.37035 -0.52449 3.41376
                  CHANNELS 3 Zrotation Xrotation Yrotation
                  End Site
                  {
                    OFFSET 1.78271 -1.18214 1.43049
                  }
                }
              }
              JOINT lIndex1
              {
                OFFSET 7.75947 0.938293 5.60832
                CHANNELS 3 Zrotation Xrotation Yrotation
                JOINT lIndex2
                {
                  OFFSET 2.54057 -0.884171 1.56538
                  CHANNELS 3 Zrotation Xrotation Yrotation
                  End Site
                  {
                    OFFSET 1.62519 -0.234802 1.16502
                  }
                }
              }
              JOINT lMid1
              {
                OFFSET 8.24714 1.18213 3.41376
                CHANNELS 3 Zrotation Xrotation Yrotation
                JOINT lMid2
                {
                  OFFSET 3.10165 -0.590103 1.0647
                  CHANNELS 3 Zrotation Xrotation Yrotation
                  End Site
                  {
                    OFFSET 2.48547 -0.328903 0.83742
                  }
                }
              }
              JOINT lRing1
              {
                OFFSET 8.82822 0.546677 1.51678
                CHANNELS 3 Zrotation Xrotation Yrotation
                JOINT lRing2
                {
                  OFFSET 2.60934 -0.819778 -0.0198488
                  CHANNELS 3 Zrotation Xrotation Yrotation
                  End Site
                  {
                    OFFSET 2.33842 -0.294052 0.168128
                  }
                }
              }
              JOINT lPinky1
              {
                OFFSET 8.27202 -0.0477905 -0.4584
                CHANNELS 3 Zrotation Xrotation Yrotation
                JOINT lPinky2
                {
                  OFFSET 1.82734 -0.647385 -0.700984
                  CHANNELS 3 Zrotation Xrotation Yrotation
                  End Site
                  {
                    OFFSET 1.69225 -0.51767 -0.607171
                  }
                }
              }
            }
          }
        }
      }
    }
  }
  JOINT rButtock
  {
    OFFSET -8.77824 4.35084 1.2192
    CHANNELS 3 Zrotation Xrotation Yrotation
    JOINT rThigh
    {
      OFFSET 0 -1.70687 -2.19456
      CHANNELS 3 Zrotation Xrotation Yrotation
      JOINT rShin
      {
        OFFSET 0 -36.8199 0.73152
        CHANNELS 3 Zrotation Xrotation Yrotation
        JOINT rFoot
        {
          OFFSET 0.73152 -45.1104 -5.12064
          CHANNELS 3 Zrotation Xrotation Yrotation
          End Site
          {
            OFFSET -1.1221 -3.69964 12.103
          }
        }
      }
    }
  }
  JOINT lButtock
  {
    OFFSET 8.77824 4.35084 1.2192
    CHANNELS 3 Zrotation Xrotation Yrotation
    JOINT lThigh
    {
      OFFSET 0 -1.70687 -2.19456
      CHANNELS 3 Zrotation Xrotation Yrotation
      JOINT lShin
      {
        OFFSET 0 -36.8199 0.73152
        CHANNELS 3 Zrotation Xrotation Yrotation
        JOINT lFoot
        {
          OFFSET -0.73152 -45.1104 -5.12064
          CHANNELS 3 Zrotation Xrotation Yrotation
          End Site
          {
            OFFSET 1.1221 -3.69964 12.103
          }
        }
      }
    }
  }
}
MOTION
Frames:	5
Frame Time:	0.03333
-66.1828 73.45089999999999 -37.6123 -122.857452 -76.716017 127.794046 15.072271 13.774193 -3.045607 0.989166 -11.178008 12.12265 1.27309 32.727495 166.965195 -9.035176 51.921064 179.297057 0.000158 0.0 0.003058 -0.001184 0.0 -0.00228 -159.22032 -48.02838 170.415771 -95.306423 -27.863402 -141.880031 -61.211049 26.800491 -63.573429 -164.501914 -16.425393 151.664075 -1.193939 1.174196 0.194436 3.313765 -3.920324 -1.867522 -10.572623 15.012901 6.865677 -1.847065 15.454247 3.216139 173.124104 -66.297849 137.614848 -42.516865 58.33311 36.422434 -145.119082 0.185849 -179.185747 11.71581 24.12765 -6.239755 26.762009 79.922262 10.278451 0.354822 -2.661564 -1.779351 153.049531 10.023236 -158.667626 58.070591 13.012112 10.562768 -76.474118 -38.060147 122.973081 176.535758 38.348836 -149.314181 85.829082 38.631127 -47.955692 -36.083128 -33.966835 -21.548419 -11.100712 -19.7095 4.827361 -4.314284 13.143355 -1.837178 82.840448 61.111324 -74.532312 -167.844326 -64.067808 -132.815256 0.022662 -1.724987 0.543535 -7.980856 24.000131 -3.53066 -5.049335 14.842952 -4.553754 149.684546 18.69623 145.220221 179.995607 75.75025 0.003615 -178.84934 57.145774 -0.954253 45.944707 46.172496 47.054238 -120.140868 -31.530424 175.460794 -179.997161 75.749159 -0.002336 -171.58811 3.625113 113.149849 105.263405 -28.960369 -17.633571 -122.429662 19.326238 36.380936
-69.3887 73.6669 -37.9106 -133.054526 -74.066661 137.418858 10.753879 9.940731 132.268616 -6.891273 3.009312 -124.666132 -13.257604 23.33377 -72.361503 42.883098 -0.003826 61.374253 -0.00016 0.0 -0.000474 -0.00016 0.0 -0.000474 -155.614084 -4.236311 161.991304 -78.115981 -35.127609 -75.991801 -19.173761 50.364006 -116.052607 -165.134628 3.112021 142.098224 -164.698378 -2.371779 89.586128 -121.135176 9.740057 56.868345 37.21445 -57.918279 -0.645254 -15.532841 37.650696 13.120651 -154.522679 10.68945 139.686292 -163.228525 -4.794217 142.977848 -13.619531 -53.679428 -25.683957 14.1653 -3.307092 -2.608396 32.026182 83.320388 6.217942 -24.346477 -39.521122 -24.40643 9.651668 34.836176 -11.199255 108.678431 3.094515 -97.626741 153.009268 2.25842 84.681403 0.848086 7.012362 -0.549019 -17.492813 -17.281233 0.030579 134.568526 -23.615937 -121.212935 15.537086 20.583856 -10.554084 170.436285 -22.639978 -109.66298 151.476652 17.841761 -137.5389 4.895508 21.012278 -4.720875 145.10011 -1.520968 178.649877 134.065848 -64.914286 156.159452 -31.493787 83.083419 -6.666888 152.650903 25.393705 145.481492 0.000504 0.001324 -0.000647 -0.040466 -15.4297 -1.613909 43.793077 48.736497 67.862444 -90.184652 -12.805874 -160.076904 -0.007032 -0.000336 -0.007032 37.746639 -70.52261 36.362479 -79.033515 83.364067 7.310652 3.137889 -20.202774 78.110769
-72.79759999999999 73.89139999999999 -38.0118 -145.37224 -69.442008 148.202793 5.707875 10.271677 118.693002 -8.445341 -0.974524 -112.007118 -13.087919 25.752901 -92.475683 38.857081 17.366185 83.967349 0.002017 -0.0 -0.002909 0.003012 0.0 0.000959 -0.049015 0.292333 0.065569 70.673612 -3.20717 42.395599 -178.186906 -13.380057 20.585047 -157.395487 20.978043 135.150343 -172.744831 -10.423994 89.93037 -83.441119 8.679423 29.459978 -135.711921 8.932507 113.08081 -150.246047 11.774454 115.483273 -161.517802 -9.303941 143.627321 -175.375431 -39.006949 142.902169 -145.117868 0.226937 -179.198945 -152.047204 -26.984538 -174.937897 -152.877311 39.992427 -148.056236 -26.047879 -40.247673 -26.820082 -0.071181 -0.42771 0.095562 -81.231426 -0.129346 -68.594692 -174.559583 -20.139025 -81.635254 -174.486797 -13.447546 -144.599885 -175.880277 -21.25755 -88.493722 142.661004 13.268378 -76.548113 117.61754 28.168274 -99.447612 -3.766951 5.643639 6.42116 -23.901391 -61.334275 -1.396933 -9.711421 -20.38154 1.427894 145.120932 0.310325 179.225258 -12.108187 40.325786 4.412168 -0.552974 1.45549 -0.507293 76.010499 -54.870271 75.648132 0.000858 -0.000903 -0.001104 -1.581205 -14.155938 167.381914 -29.113579 -60.338027 -69.605514 29.588827 32.796845 -177.583196 179.722329 75.748398 0.21401 -164.041312 2.16154 -95.441764 -68.980601 -2.491372 72.709523 127.965905 -22.646071 -38.189578
-76.7294 74.2348 -37.9776 -154.515167 -62.94249 156.081714 2.682524 10.351012 140.371093 -8.062991 0.825248 -132.161794 6.262233 19.682669 107.412619 -29.538852 8.229365 -102.492706 -0.000526 -0.0 0.001751 -0.001313 0.0 -0.003728 -13.743703 42.431431 15.569755 -120.328254 -11.97645 127.243772 88.615183 -59.427319 -105.822445 -73.221225 56.394516 52.296546 116.308833 -50.009676 56.954339 -161.322655 -10.678239 116.436969 -140.763367 1.380122 116.228204 -168.337825 -25.455622 118.624844 -169.09 -33.247567 145.373556 11.438866 -24.914552 -1.162073 0.000467 -0.01844 -0.006444 10.2875 0.62 0.014231 -6.260303 -14.051932 -5.8851 -20.510141 -38.476107 -21.606092 159.221455 -49.037794 -170.635787 73.128688 -19.378087 130.892574 160.510201 5.570297 166.214576 75.10027 82.874622 -85.177275 7.758153 7.439224 -1.682282 -7.191764 -7.076297 0.379645 145.488395 -6.528338 -118.750244 -167.947242 -56.459185 -106.370302 8.416693 20.880487 -5.644812 4.884524 21.330082 -4.428452 80.61373 72.799109 -98.881761 -5.069137 30.120298 0.595499 25.537581 -38.087405 24.598772 137.069363 -13.587259 135.305467 179.981991 75.749455 0.012322 176.182018 65.022087 -131.983781 -52.60002 -30.014546 16.424607 -72.883424 -72.311718 14.365785 -179.997586 75.750496 -0.00249 -162.43793 8.564673 115.199509 43.851929 -28.922627 -136.338889 -57.400412 -17.948394 46.189081
-81.0601 73.6944 -37.6006 -157.911755 -56.384886 159.903937 6.335907 13.353433 0.0 2.390434 -8.574771 7.683508 6.742457 21.621242 119.805931 -30.776401 18.533714 -103.070275 -0.002414 0.0 -0.004212 0.004207 0.0 0.00027 0.163243 -0.990039 -0.218502 -98.411765 -13.648356 -165.287449 64.698768 -36.28192 -137.327656 -61.772209 49.337419 41.954664 -7.758119 7.43922 1.682413 -114.012493 -6.383829 102.498559 -90.225674 41.070406 75.796074 -167.085869 -14.987373 114.856928 -151.476185 17.840971 137.536909 -0.783635 11.274354 2.254683 0.005225 1.770809 0.557035 -154.279999 13.691567 169.965428 -130.718459 -21.007514 -128.303016 -151.456413 25.908707 -144.739028 0.272632 1.606788 -0.361519 -75.499626 -8.474295 -87.028726 -73.037254 -54.401725 -67.386115 -179.970231 51.278017 -161.935947 171.705595 -9.388618 -89.948911 -124.415891 -58.69903 -90.019934 1.160204 1.861072 -0.670678 0.858604 16.149128 -3.596963 36.034961 51.723711 -29.831367 167.881876 -19.501969 -144.188886 145.117357 0.227061 179.198696 -10.203164 -0.130753 9.013973 -16.827907 58.945427 -12.64399 25.442669 -40.930366 25.395689 -179.996988 75.748451 -0.002478 171.237753 67.804328 -0.0 13.541472 59.849149 153.725046 131.754931 -8.35292 -172.585142 -0.0 -0.000368 -0.000408 43.16487 -55.539155 -131.318599 -20.863166 -39.594963 118.797941 114.440014 -21.554989 -62.048122
